<?xml version="1.0" encoding="UTF-8" standalone="no"?>
<!-- Generator: Adobe Illustrator 19.0.0, SVG Export Plug-In . SVG Version: 6.00 Build 0)  -->

<svg
   version="1.1"
   id="layer"
   x="0px"
   y="0px"
   viewBox="-153 -46 652 652"
   style="enable-background:new -153 -46 652 652;"
   xml:space="preserve"
   sodipodi:docname="nhs-knowsley-clinical-commissioning-group-ccg-logo-vector.svg"
   inkscape:version="1.2.2 (b0a8486541, 2022-12-01)"
   inkscape:export-filename="nhs-knowsley-clinical-commissioning-group-ccg-logo.png"
   inkscape:export-xdpi="96"
   inkscape:export-ydpi="96"
   xmlns:inkscape="http://www.inkscape.org/namespaces/inkscape"
   xmlns:sodipodi="http://sodipodi.sourceforge.net/DTD/sodipodi-0.dtd"
   xmlns="http://www.w3.org/2000/svg"
   xmlns:svg="http://www.w3.org/2000/svg"><defs
   id="defs202" /><sodipodi:namedview
   id="namedview200"
   pagecolor="#ffffff"
   bordercolor="#000000"
   borderopacity="0.25"
   inkscape:showpageshadow="2"
   inkscape:pageopacity="0.0"
   inkscape:pagecheckerboard="0"
   inkscape:deskcolor="#d1d1d1"
   showgrid="false"
   inkscape:zoom="1.0237865"
   inkscape:cx="301.33236"
   inkscape:cy="318.91415"
   inkscape:window-width="1600"
   inkscape:window-height="928"
   inkscape:window-x="0"
   inkscape:window-y="40"
   inkscape:window-maximized="1"
   inkscape:current-layer="layer" />
<style
   type="text/css"
   id="style194">
	.st0{fill:#0072BC;}
</style>
<path
   id="XMLID_18_"
   class="st0"
   d="M460.9,366.4c3.8,0,4.8,4.1,4.8,7.1c0,3.1-1.1,7.2-4.9,7.2c-3.9,0-5.1-4.1-5.1-7.2  C455.7,370.4,457.1,366.4,460.9,366.4 M449.8,393.9h5.8v-11.7h0.1c2,2.5,4.1,3.1,6.6,3.1c7,0,9.5-5.6,9.5-11.8  c0-6.2-2.5-11.6-9.4-11.6c-3.4,0-5.6,1.5-6.9,3.7h-0.1v-3.2h-5.6V393.9z M443.8,362.5H438v10.9c0,2.9-0.9,7.4-5.1,7.4  c-3.7,0-3.8-3.7-3.8-6.4v-11.9h-5.8v14.1c0,5,2.3,8.8,7.6,8.8c3,0,5.6-1.4,7.3-3.6h0.1v3h5.5V362.5z M401.4,373.1  c0-3.3,1.8-6.6,5.6-6.6c3.8,0,5.6,3.2,5.6,6.6c0,3.7-1.2,7.7-5.6,7.7C402.5,380.8,401.4,376.8,401.4,373.1 M395.3,373.8  c0,6.4,4.3,11.6,11.7,11.6c7.4,0,11.7-5.1,11.7-11.6c0-7.4-5.1-11.9-11.7-11.9C400.4,361.9,395.3,366.4,395.3,373.8 M380.7,384.8  h5.8v-8.2c0-3.2,0-9.1,4.7-9.1c1,0,2.1,0.2,2.6,0.5v-5.9c-0.6-0.2-1.2-0.2-1.8-0.2c-3.5,0-5.9,3.5-6.1,5.6h-0.1v-5.1h-5.2V384.8z   M373.8,355.2c-2.6-0.8-5.4-1.3-8.9-1.3c-10.3,0-16.6,5.8-16.6,16.2c0,10.2,6.8,15.2,16.6,15.2c3.3,0,6.6-0.7,9.8-1.6v-16.3h-12.2  v4.8h6.4v7.9c-1,0.3-2.3,0.4-4,0.4c-6.5,0-10.3-4.6-10.3-10.8c0-6.2,3.9-11,11-11c2.4,0,5.5,0.5,7.8,1.6L373.8,355.2z M327.4,362.5  v3h-0.1c-1.6-2.6-3.9-3.6-6.9-3.6c-6.7,0-9.5,6.2-9.5,11.6c0,6,2.5,11.3,9.1,11.3c3.3,0,5.9-1.7,6.9-3.6h0.1c0,3.9-0.3,8.7-6.7,8.7  c-1.8,0-4.7-1-6.5-2l-0.5,5c2.8,1.2,5.4,1.5,7.7,1.5c9.4,0,11.8-5.7,11.8-11.8v-20.2H327.4z M322,380.3c-3.3,0-4.9-3.7-4.9-6.8  c0-3.4,1.3-7.1,5.2-7.1c3.4,0,4.9,3.1,4.9,6.9C327.1,377.1,325.6,380.3,322,380.3 M285.8,384.8h5.8v-10.9c0-2.9,0.9-7.4,5.1-7.4  c3.7,0,3.8,3.7,3.8,6.4v11.9h5.8v-14.1c0-5-2.3-8.8-7.6-8.8c-3,0-5.5,1-7.3,3.6h-0.1v-3h-5.5V384.8z M273.9,358.4h5.8v-5.6h-5.8  V358.4z M273.9,384.8h5.8v-22.4h-5.8V384.8z M247.2,384.8h5.8v-10.9c0-2.9,0.9-7.4,5.1-7.4c3.7,0,3.8,3.7,3.8,6.4v11.9h5.8v-14.1  c0-5-2.3-8.8-7.6-8.8c-3,0-5.5,1-7.3,3.6h-0.1v-3h-5.5V384.8z M225.3,373.1c0-3.3,1.8-6.6,5.6-6.6c3.8,0,5.6,3.2,5.6,6.6  c0,3.7-1.2,7.7-5.6,7.7C226.5,380.8,225.3,376.8,225.3,373.1 M219.3,373.8c0,6.4,4.3,11.6,11.7,11.6c7.4,0,11.7-5.1,11.7-11.6  c0-7.4-5.1-11.9-11.7-11.9C224.3,361.9,219.3,366.4,219.3,373.8 M208.7,358.4h5.8v-5.6h-5.8V358.4z M208.7,384.8h5.8v-22.4h-5.8  V384.8z M203,362.8c-1.8-0.4-3.6-0.8-6.3-0.8c-4.6,0-8.8,2.1-8.8,6.9c0,8.1,10.1,5.1,10.1,9.5c0,2.2-2.4,2.7-3.8,2.7  c-2,0-3.9-0.6-5.7-1.5l-0.4,4.8c2.1,0.6,4.4,1,6.6,1c4.7,0,9.4-2.1,9.4-7.3c0-8.1-10.1-5.8-10.1-9.4c0-1.9,1.9-2.5,3.4-2.5  c2.1,0,3.4,0.4,5.2,1L203,362.8z M183.7,362.8c-1.8-0.4-3.6-0.8-6.3-0.8c-4.6,0-8.8,2.1-8.8,6.9c0,8.1,10.1,5.1,10.1,9.5  c0,2.2-2.3,2.7-3.8,2.7c-2,0-3.9-0.6-5.7-1.5l-0.3,4.8c2.1,0.6,4.4,1,6.6,1c4.7,0,9.4-2.1,9.4-7.3c0-8.1-10.1-5.8-10.1-9.4  c0-1.9,1.9-2.5,3.4-2.5c2.1,0,3.4,0.4,5.2,1L183.7,362.8z M158.1,358.4h5.8v-5.6h-5.8V358.4z M158.1,384.8h5.8v-22.4h-5.8V384.8z   M119.3,384.8h5.8V374c0-2.9,0.5-7.5,4.3-7.5c3.3,0,3.3,3,3.3,5v13.3h5.8V374c0-2.9,0.5-7.5,4.3-7.5c3.3,0,3.3,3,3.3,5v13.3h5.8  v-14.1c0-5-1.6-8.8-7.1-8.8c-2.7,0-5.6,1.3-7,4c-1.3-2.8-3.5-4-6.6-4c-2.2,0-4.8,0.9-6.7,3.6h-0.1v-3.1h-5.4V384.8z M80.7,384.8h5.8  V374c0-2.9,0.5-7.5,4.3-7.5c3.3,0,3.3,3,3.3,5v13.3h5.8V374c0-2.9,0.5-7.5,4.3-7.5c3.3,0,3.3,3,3.3,5v13.3h5.8v-14.1  c0-5-1.6-8.8-7.1-8.8c-2.7,0-5.6,1.3-7,4c-1.3-2.8-3.5-4-6.6-4c-2.2,0-4.8,0.9-6.6,3.6h-0.1v-3.1h-5.4V384.8z M58.9,373.1  c0-3.3,1.8-6.6,5.6-6.6c3.8,0,5.6,3.2,5.6,6.6c0,3.7-1.2,7.7-5.6,7.7C60,380.8,58.9,376.8,58.9,373.1 M52.8,373.8  c0,6.4,4.3,11.6,11.7,11.6c7.4,0,11.7-5.1,11.7-11.6c0-7.4-5.1-11.9-11.7-11.9C57.9,361.9,52.8,366.4,52.8,373.8 M50,379.3  c-1.4,0.7-4.3,1.3-6.6,1.3c-6.5,0-10.3-4.6-10.3-10.8c0-6.2,3.9-11,10.2-11c2.2,0,4.3,0.3,6.6,1.6l0.4-5.1c-2.2-0.9-4.9-1.3-6.9-1.3  c-10.3,0-16.6,5.8-16.6,16.2c0,10.2,6.8,15.2,16.6,15.2c2.3,0,4.7-0.4,6.9-1L50,379.3z M7.1,384.8H13v-32.6H7.1V384.8z M-13,378.3  c0-3.4,3.9-3.9,6.5-3.9H-4c0,1.7-0.3,3.3-1.2,4.6c-0.9,1.2-2.3,2-4.1,2C-11.4,381.1-13,380.3-13,378.3 M-16,368.6  c2-1.5,4.4-2.4,6.9-2.4c3.4,0,5,1.2,5,4.8h-3.2c-2.4,0-5.3,0.2-7.5,1.3c-2.2,1.1-3.8,3-3.8,6.4c0,4.3,3.9,6.6,7.8,6.6  c2.6,0,5.6-1.4,6.9-3.9h0.1c0,0.7,0,2.2,0.3,3.3h5.1c-0.1-1.7-0.2-3.3-0.3-5c0-1.6-0.1-3.3-0.1-5.6v-2.9c0-6.6-2.8-9.4-9.6-9.4  c-2.5,0-5.5,0.7-7.8,1.7L-16,368.6z M-21.4,362.7c-1.6-0.5-3.3-0.7-5.6-0.7c-7,0-10.8,5.1-10.8,11.6c0,6.8,3.7,11.8,11,11.8  c2.4,0,4.1-0.2,5.8-0.7l-0.3-4.8c-1,0.4-2.8,1-4.5,1c-4.1,0-6-3.2-6-7.3c0-4.2,2.3-7.1,5.9-7.1c1.8,0,2.9,0.4,4,0.8L-21.4,362.7z   M-48.4,358.4h5.8v-5.6h-5.8V358.4z M-48.4,384.8h5.8v-22.4h-5.8V384.8z M-75,384.8h5.8v-10.9c0-2.9,0.9-7.4,5.1-7.4  c3.7,0,3.8,3.7,3.8,6.4v11.9h5.8v-14.1c0-5-2.3-8.8-7.6-8.8c-3,0-5.5,1-7.3,3.6h-0.1v-3H-75V384.8z M-87,358.4h5.8v-5.6H-87V358.4z   M-87,384.8h5.8v-22.4H-87V384.8z M-99,384.8h5.8v-32.6H-99V384.8z M-103.4,379.3c-1.4,0.7-4.3,1.3-6.6,1.3  c-6.5,0-10.3-4.6-10.3-10.8c0-6.2,3.9-11,10.2-11c2.2,0,4.3,0.3,6.6,1.6l0.4-5.1c-2.2-0.9-4.9-1.3-6.9-1.3  c-10.3,0-16.6,5.8-16.6,16.2c0,10.2,6.8,15.2,16.6,15.2c2.3,0,4.7-0.4,6.9-1L-103.4,379.3z" />

<path
   id="XMLID_2_"
   class="st0"
   d="M464.7,177.2l-4.8,14.8c-3.9-1.8-9.1-3.4-16.5-3.4c-7.9,0-14.3,1.2-14.3,7.1  c0,10.5,29,6.6,29,29.2c0,20.5-19.2,25.9-36.5,25.9c-7.7,0-16.6-1.8-23.1-3.8l4.7-15.1c3.9,2.6,11.9,4.3,18.4,4.3  c6.2,0,15.9-1.2,15.9-8.8c0-11.9-29-7.5-29-28.4c0-19.2,16.9-24.9,33.3-24.9C451,173.9,459.7,174.8,464.7,177.2 M407.3,175.2  l-15.5,74.3h-20l6.6-31.8h-23.7l-6.6,31.8h-20l15.5-74.3h20l-5.9,28.4h23.6l5.9-28.4H407.3z M336.2,175.2l-15.8,74.3h-24.8  l-15.6-51.4h-0.2l-10.4,51.4h-18.8l16-74.3h24.9l15.3,51.5h0.2l10.5-51.5H336.2z M473.3,166.3H244v92.3h229.3V166.3z" />
<text
   xml:space="preserve"
   style="font-size:55.8783px;fill:#000000;stroke-width:4.65652"
   x="200.35239"
   y="323.80463"
   id="text305"><tspan
     sodipodi:role="line"
     id="tspan303"
     x="200.35239"
     y="323.80463"
     style="font-style:normal;font-variant:normal;font-weight:normal;font-stretch:normal;font-size:55.8783px;font-family:'Frutiger Bold';-inkscape-font-specification:'Frutiger Bold, Normal';font-variant-ligatures:normal;font-variant-caps:normal;font-variant-numeric:normal;font-variant-east-asian:normal;stroke-width:4.65652">Anywhere</tspan></text></svg>
