<?xml version="1.0" encoding="UTF-8" standalone="no"?>
<!-- Created with Inkscape (http://www.inkscape.org/) -->

<svg
   xmlns:dc="http://purl.org/dc/elements/1.1/"
   xmlns:cc="http://creativecommons.org/ns#"
   xmlns:rdf="http://www.w3.org/1999/02/22-rdf-syntax-ns#"
   xmlns:svg="http://www.w3.org/2000/svg"
   xmlns="http://www.w3.org/2000/svg"
   xmlns:sodipodi="http://sodipodi.sourceforge.net/DTD/sodipodi-0.dtd"
   xmlns:inkscape="http://www.inkscape.org/namespaces/inkscape"
   width="99.729271mm"
   height="43.960659mm"
   viewBox="0 0 99.729271 43.960659"
   version="1.1"
   id="svg1767"
   inkscape:version="0.92.0 r15299"
   sodipodi:docname="nhs improvement.svg">
  <defs
     id="defs1761" />
  <sodipodi:namedview
     id="base"
     pagecolor="#ffffff"
     bordercolor="#666666"
     borderopacity="1.0"
     inkscape:pageopacity="0.0"
     inkscape:pageshadow="2"
     inkscape:zoom="2.4038591"
     inkscape:cx="186.575"
     inkscape:cy="81.185499"
     inkscape:document-units="mm"
     inkscape:current-layer="layer1"
     showgrid="false"
     fit-margin-top="0"
     fit-margin-left="0"
     fit-margin-right="0"
     fit-margin-bottom="0"
     units="mm"
     inkscape:window-width="1280"
     inkscape:window-height="744"
     inkscape:window-x="-4"
     inkscape:window-y="-4"
     inkscape:window-maximized="1" />
  <metadata
     id="metadata1764">
    <rdf:RDF>
      <cc:Work
         rdf:about="">
        <dc:format>image/svg+xml</dc:format>
        <dc:type
           rdf:resource="http://purl.org/dc/dcmitype/StillImage" />
        <dc:title></dc:title>
      </cc:Work>
    </rdf:RDF>
  </metadata>
  <g
     inkscape:label="Layer 1"
     inkscape:groupmode="layer"
     id="layer1"
     transform="translate(158.97773,-313.07324)">
    <g
       id="g1773"
       transform="matrix(0.26458333,0,0,0.26458333,-158.47773,313.57324)">
	<path
   id="path1769"
   d="m 0.001,149.801 h 8.38 v -41.778 h -8.38 z m 16.52,0 h 8.02 v -14.964 c 0,-4.01 0.659,-10.354 5.986,-10.354 4.609,0 4.609,4.069 4.609,6.942 v 18.376 h 8.02 v -14.964 c 0,-4.01 0.659,-10.354 5.986,-10.354 4.609,0 4.609,4.069 4.609,6.942 v 18.376 h 8.021 v -19.453 c 0,-6.884 -2.155,-12.091 -9.757,-12.091 -3.771,0 -7.781,1.736 -9.636,5.447 -1.736,-3.83 -4.789,-5.447 -9.098,-5.447 -2.993,0 -6.645,1.257 -9.158,5.028 h -0.12 v -4.311 h -7.482 z m 53.331,12.57 h 8.021 V 146.27 h 0.12 c 2.813,3.41 5.626,4.248 9.038,4.248 9.637,0 13.108,-7.78 13.108,-16.221 0,-8.499 -3.471,-16.041 -12.929,-16.041 -4.728,0 -7.781,2.095 -9.576,5.088 h -0.12 v -4.37 h -7.662 z m 15.263,-37.889 c 5.208,0 6.644,5.687 6.644,9.815 0,4.25 -1.497,9.997 -6.763,9.997 -5.328,0 -7.063,-5.627 -7.063,-9.997 0,-4.308 2.034,-9.815 7.182,-9.815 m 21.488,25.319 h 8.021 v -11.312 c 0,-4.431 0,-12.57 6.524,-12.57 1.436,0 2.873,0.239 3.591,0.658 v -8.08 c -0.838,-0.24 -1.676,-0.24 -2.454,-0.24 -4.788,0 -8.08,4.849 -8.44,7.723 h -0.119 v -7.005 h -7.123 z m 20.062,-15.203 c 0,8.859 5.925,15.921 16.101,15.921 10.235,0 16.161,-7.062 16.161,-15.921 0,-10.176 -7.003,-16.341 -16.161,-16.341 -9.098,0 -16.101,6.165 -16.101,16.341 m 8.38,-0.958 c 0,-4.608 2.513,-9.157 7.721,-9.157 5.267,0 7.781,4.43 7.781,9.157 0,5.148 -1.616,10.655 -7.781,10.655 -6.106,0 -7.721,-5.567 -7.721,-10.655 m 38.188,16.161 h 9.038 l 11.372,-30.826 h -8.02 l -7.423,22.446 h -0.119 l -7.662,-22.446 H 161.8 Z m 30.945,-18.435 c 0.359,-4.13 2.634,-7.243 7.123,-7.243 4.489,0 6.285,3.352 6.524,7.243 z m 19.034,10.176 c -2.993,1.675 -6.345,3.112 -10.235,3.112 -4.968,0 -8.439,-2.814 -8.799,-7.781 h 21.31 c 0,-10.775 -3.232,-18.616 -14.665,-18.616 -9.577,0 -14.307,7.363 -14.307,16.281 0,10.116 5.926,15.98 16.102,15.98 4.31,0 7.662,-0.838 10.595,-2.453 v -6.523 z m 8.439,8.259 h 8.021 v -14.964 c 0,-4.01 0.658,-10.354 5.985,-10.354 4.608,0 4.608,4.069 4.608,6.942 v 18.376 h 8.021 v -14.964 c 0,-4.01 0.658,-10.354 5.984,-10.354 4.609,0 4.609,4.069 4.609,6.942 v 18.376 h 8.021 v -19.453 c 0,-6.884 -2.155,-12.091 -9.758,-12.091 -3.771,0 -7.78,1.736 -9.636,5.447 -1.736,-3.83 -4.789,-5.447 -9.099,-5.447 -2.992,0 -6.645,1.257 -9.157,5.028 h -0.12 v -4.311 h -7.482 v 30.827 z m 59.018,-18.435 c 0.359,-4.13 2.633,-7.243 7.123,-7.243 4.488,0 6.284,3.352 6.523,7.243 z m 19.034,10.176 c -2.993,1.675 -6.346,3.112 -10.235,3.112 -4.969,0 -8.439,-2.814 -8.799,-7.781 h 21.308 c 0,-10.775 -3.231,-18.616 -14.664,-18.616 -9.577,0 -14.306,7.363 -14.306,16.281 0,10.116 5.926,15.98 16.101,15.98 4.311,0 7.662,-0.838 10.596,-2.453 v -6.523 z m 8.559,8.259 h 8.021 v -15.084 c 0,-3.95 1.257,-10.234 7.062,-10.234 5.147,0 5.207,5.088 5.207,8.857 v 16.461 h 8.021 v -19.453 c 0,-6.942 -3.173,-12.091 -10.476,-12.091 -4.189,0 -7.602,1.377 -10.115,4.909 h -0.119 v -4.191 h -7.603 v 30.826 z m 39.206,-9.277 c 0,6.104 3.472,9.994 9.756,9.994 2.395,0 4.25,-0.238 5.926,-0.718 l -0.239,-6.344 c -0.838,0.539 -2.214,0.838 -3.65,0.838 -3.053,0 -3.771,-2.455 -3.771,-5.088 V 124.84 h 7.123 v -5.866 h -7.123 v -8.737 l -8.021,2.572 v 6.165 h -5.926 v 5.866 h 5.926 v 15.684 z"
   inkscape:connector-curvature="0" />

	<path
   id="path1771"
   d="M 211.088,0 H 0 V 85.002 H 211.088 Z M 84.871,8.201 70.298,76.62 H 47.432 L 33.054,29.278 H 32.859 L 23.295,76.62 H 5.953 L 20.642,8.201 h 22.945 l 14.094,47.445 h 0.194 L 67.529,8.201 Z m 65.406,0 -14.287,68.419 h -18.416 l 6.108,-29.304 H 101.901 L 95.793,76.62 H 77.377 L 91.665,8.201 h 18.416 l -5.41,26.176 h 21.768 l 5.422,-26.176 z m 52.906,1.866 -4.439,13.623 c -3.545,-1.661 -8.374,-3.129 -15.167,-3.129 -7.286,0 -13.201,1.069 -13.201,6.566 0,9.696 26.698,6.077 26.698,26.858 0,18.914 -17.639,23.819 -33.597,23.819 -7.091,0 -15.27,-1.674 -21.274,-3.54 l 4.335,-13.918 c 3.636,2.357 10.935,3.927 16.939,3.927 5.722,0 14.677,-1.081 14.677,-8.136 0,-10.983 -26.699,-6.864 -26.699,-26.164 0,-17.651 15.57,-22.943 30.646,-22.943 8.476,-0.001 16.448,0.888 21.082,3.037"
   inkscape:connector-curvature="0"
   style="fill:#1366b2" />

</g>
  </g>
</svg>
